<svg xmlns="http://www.w3.org/2000/svg" xmlns:xlink="http://www.w3.org/1999/xlink" viewBox="0 0 20 20">
  <defs>
    <clipPath id="b">
      <path d="M0 0h20v20H0z"/>
    </clipPath>
    <filter id="a" width="100%" height="100%" x="0%" y="0%" filterUnits="objectBoundingBox">
      <feColorMatrix in="SourceGraphic" values="0 0 0 0 1 0 0 0 0 1 0 0 0 0 1 0 0 0 1 0"/>
    </filter>
    <mask id="d">
      <g filter="url(#a)">
        <use xlink:href="#b"/>
      </g>
    </mask>
    <g id="c" clip-path="url(#b)">
      <path d="M9 9.7h-.3v.3H9Zm0-.3-.2-.2h-.1v.2Zm1-1.1L9.9 8Zm.4-.4.2.2Zm.1-.3-.3-.1Zm0-.5-.2.1Zm-.2-.2.1-.3Zm-.6 0 .1.2Zm-.2.2-.3-.2Zm-.1.3v.3h.3v-.3Zm-.4 0h-.3v.3H9Zm.1-.5.3.2Zm.4-.3-.1-.3Zm1 0 .1-.3Zm.3.3-.2.2Zm0 .8-.2-.1Zm-.1.4-.3-.2Zm-.5.5.3.2Zm-.7.7-.2-.2v.2Zm0 0h-.3v.4h.3Zm1.5 0h.3V9H11Zm0 .4v.3h.3v-.3Zm-1.7 0v-.3h-.6v.3Zm0 0 1-1.2-.5-.5-1 1.2Zm1-1.2.3-.4-.5-.4-.3.3Zm.3-.4.2-.3-.6-.3v.2Zm.2-.3.1-.5h-.6v.2Zm.1-.5-.1-.4-.5.3v.1Zm-.1-.4-.4-.3-.2.5v.1Zm-.4-.3a1 1 0 0 0-.4-.1V7h.2Zm-.4-.1a1 1 0 0 0-.5.1l.3.5h.2Zm-.5.1-.3.3.5.3h.1Zm-.3.3-.1.5h.6v-.2Zm.2.2H9v.6h.4Zm0 .3v-.3L9 6.7l-.2.7Zm0-.3.2-.2-.2-.6-.5.4Zm.2-.2.4-.1V6l-.6.2Zm.4-.1h.3l.3-.5-.6-.2Zm.3 0 .3.3.5-.4-.5-.4Zm.3.3v.2h.7c0-.2 0-.4-.2-.6Zm0 .2v.3l.6.2v-.5Zm0 .3s0 .2-.2.3l.5.3.3-.4Zm-.2.3-.4.4.5.5.4-.6Zm-.4.4-.7.8.5.4.7-.7Zm-.8 1h.6Zm.3.4H11V9H9.5Zm1.2-.4v.4h.6v-.4Zm.3 0H9v.7h2Zm0 0"/>
    </g>
  </defs>
  <path fill="none" stroke="#000" stroke-linecap="round" stroke-linejoin="round" stroke-width="1.7" d="M11.7 17.5v-5H8.3v5m7.5-9.4v5.4c0 1.4 0 2.1-.2 2.6-.3.5-.7.9-1.1 1.1-.6.3-1.3.3-2.7.3H8.2c-1.4 0-2.1 0-2.7-.3-.4-.2-.8-.6-1-1-.3-.6-.3-1.3-.3-2.7V8.1M17.5 10 13 5a7.1 7.1 0 0 0-2.2-2c-.5-.1-1-.1-1.6 0-.6.3-1.1.8-2.2 2l-4.5 5"/>
  <path d="M9 9.7v-.3l1-1.1.4-.4.1-.3.1-.3v-.2l-.3-.2a.7.7 0 0 0-.6 0c-.1 0-.2 0-.2.2l-.1.3H9l.1-.5.4-.3.5-.1h.5a.9.9 0 0 1 .5.8l-.1.4-.2.4a6 6 0 0 1-.5.5l-.7.7H11v.4Zm0 0"/>
  <use xlink:href="#c" mask="url(#d)"/>
</svg>
