<svg xmlns="http://www.w3.org/2000/svg" xmlns:xlink="http://www.w3.org/1999/xlink" viewBox="0 0 20 20">
  <defs>
    <clipPath id="b">
      <path d="M0 0h20v20H0z"/>
    </clipPath>
    <filter id="a" width="100%" height="100%" x="0%" y="0%" filterUnits="objectBoundingBox">
      <feColorMatrix in="SourceGraphic" values="0 0 0 0 1 0 0 0 0 1 0 0 0 0 1 0 0 0 1 0"/>
    </filter>
    <mask id="d">
      <g filter="url(#a)">
        <use xlink:href="#b"/>
      </g>
    </mask>
    <g id="c" clip-path="url(#b)">
      <path d="M10.4 6.5h.3v-.3h-.3Zm0 3.2v.3h.3v-.3Zm-.4 0h-.3v.3h.3Zm0-2.8h.4v-.3H10Zm0 0v-.3h-.1Zm-.8.5H9V8l.5-.3Zm0-.4-.1-.2h-.2V7Zm.8-.5v-.3h-.1Zm.1 0v3.2h.6V6.5Zm.3 2.9H10v.6h.4Zm0 .3V6.9h-.7v2.8ZM10 6.6v.6Zm-.1 0-.8.6.3.5.8-.5Zm-.3.8V7h-.7v.4Zm-.2-.1.8-.5-.3-.6-.8.6Zm.6-.5h.4v-.6H10Zm0 0"/>
    </g>
  </defs>
  <path fill="none" stroke="#000" stroke-linecap="round" stroke-linejoin="round" stroke-width="1.7" d="M11.7 17.5v-5H8.3v5m7.5-9.4v5.4c0 1.4 0 2.1-.2 2.6-.3.5-.7.9-1.1 1.1-.6.3-1.3.3-2.7.3H8.2c-1.4 0-2.1 0-2.7-.3-.4-.2-.8-.6-1-1-.3-.6-.3-1.3-.3-2.7V8.1M17.5 10 13 5a7.1 7.1 0 0 0-2.2-2c-.5-.1-1-.1-1.6 0-.6.3-1.1.8-2.2 2l-4.5 5"/>
  <path d="M10.4 6.5v3.2H10V6.9l-.8.5V7l.8-.5Zm0 0"/>
  <use xlink:href="#c" mask="url(#d)"/>
</svg>
